<svg width="97" height="26" viewBox="0 0 97 26" fill="none" xmlns="http://www.w3.org/2000/svg">
<mask id="path-1-outside-1_77_6672" maskUnits="userSpaceOnUse" x="1" y="2" width="94" height="22" fill="black">
<rect fill="white" x="1" y="2" width="94" height="22"/>
<path d="M2.5 4.7V3H22.5V4.7H13.325V23H11.65V4.7H2.5ZM33.7402 3C39.2402 3 43.7402 7.5 43.7402 13C43.7402 18.525 39.2402 23 33.7402 23C28.2152 23 23.7402 18.525 23.7402 13C23.7402 7.5 28.2152 3 33.7402 3ZM33.7402 21.325C38.3152 21.325 42.0402 17.6 42.0402 13C42.0402 8.425 38.3152 4.7 33.7402 4.7C29.1402 4.7 25.4152 8.425 25.4152 13C25.4152 17.6 29.1402 21.325 33.7402 21.325ZM34.9902 13C34.9902 13.7 34.4152 14.275 33.7402 14.275C33.0402 14.275 32.4652 13.7 32.4652 13C32.4652 12.325 33.0402 11.75 33.7402 11.75C34.4152 11.75 34.9902 12.325 34.9902 13ZM58.7402 3C64.2402 3 68.7402 7.5 68.7402 13C68.7402 18.525 64.2402 23 58.7402 23H48.7402V12.175H50.4152V21.325H58.7402C63.3152 21.325 67.0402 17.6 67.0402 13C67.0402 8.425 63.3152 4.7 58.7402 4.7H48.7402V3H58.7402ZM83.7402 3C89.2402 3 93.7402 7.5 93.7402 13C93.7402 18.525 89.2402 23 83.7402 23C78.2152 23 73.7402 18.525 73.7402 13C73.7402 7.5 78.2152 3 83.7402 3ZM83.7402 21.325C88.3152 21.325 92.0402 17.6 92.0402 13C92.0402 8.425 88.3152 4.7 83.7402 4.7C79.1402 4.7 75.4152 8.425 75.4152 13C75.4152 17.6 79.1402 21.325 83.7402 21.325ZM84.9902 13C84.9902 13.7 84.4152 14.275 83.7402 14.275C83.0402 14.275 82.4652 13.7 82.4652 13C82.4652 12.325 83.0402 11.75 83.7402 11.75C84.4152 11.75 84.9902 12.325 84.9902 13Z"/>
</mask>
<path d="M2.5 4.7V3H22.5V4.7H13.325V23H11.65V4.7H2.5ZM33.7402 3C39.2402 3 43.7402 7.5 43.7402 13C43.7402 18.525 39.2402 23 33.7402 23C28.2152 23 23.7402 18.525 23.7402 13C23.7402 7.5 28.2152 3 33.7402 3ZM33.7402 21.325C38.3152 21.325 42.0402 17.6 42.0402 13C42.0402 8.425 38.3152 4.7 33.7402 4.7C29.1402 4.7 25.4152 8.425 25.4152 13C25.4152 17.6 29.1402 21.325 33.7402 21.325ZM34.9902 13C34.9902 13.7 34.4152 14.275 33.7402 14.275C33.0402 14.275 32.4652 13.7 32.4652 13C32.4652 12.325 33.0402 11.75 33.7402 11.75C34.4152 11.75 34.9902 12.325 34.9902 13ZM58.7402 3C64.2402 3 68.7402 7.5 68.7402 13C68.7402 18.525 64.2402 23 58.7402 23H48.7402V12.175H50.4152V21.325H58.7402C63.3152 21.325 67.0402 17.6 67.0402 13C67.0402 8.425 63.3152 4.7 58.7402 4.7H48.7402V3H58.7402ZM83.7402 3C89.2402 3 93.7402 7.5 93.7402 13C93.7402 18.525 89.2402 23 83.7402 23C78.2152 23 73.7402 18.525 73.7402 13C73.7402 7.5 78.2152 3 83.7402 3ZM83.7402 21.325C88.3152 21.325 92.0402 17.6 92.0402 13C92.0402 8.425 88.3152 4.7 83.7402 4.7C79.1402 4.7 75.4152 8.425 75.4152 13C75.4152 17.6 79.1402 21.325 83.7402 21.325ZM84.9902 13C84.9902 13.7 84.4152 14.275 83.7402 14.275C83.0402 14.275 82.4652 13.7 82.4652 13C82.4652 12.325 83.0402 11.75 83.7402 11.75C84.4152 11.75 84.9902 12.325 84.9902 13Z" fill="#4260FF"/>
<path d="M2.5 4.7H1.5V5.7H2.5V4.7ZM2.5 3V2H1.5V3H2.5ZM22.5 3H23.5V2H22.5V3ZM22.5 4.7V5.7H23.5V4.7H22.5ZM13.325 4.7V3.7H12.325V4.7H13.325ZM13.325 23V24H14.325V23H13.325ZM11.65 23H10.65V24H11.65V23ZM11.65 4.7H12.65V3.7H11.65V4.7ZM3.5 4.7V3H1.5V4.7H3.5ZM2.5 4H22.5V2H2.5V4ZM21.5 3V4.7H23.5V3H21.5ZM22.5 3.7H13.325V5.7H22.5V3.7ZM12.325 4.7V23H14.325V4.7H12.325ZM13.325 22H11.65V24H13.325V22ZM12.65 23V4.7H10.65V23H12.65ZM11.65 3.7H2.5V5.7H11.65V3.7ZM33.7402 4C38.688 4 42.7402 8.05228 42.7402 13H44.7402C44.7402 6.94772 39.7925 2 33.7402 2V4ZM42.7402 13C42.7402 17.9711 38.6896 22 33.7402 22V24C39.7909 24 44.7402 19.0789 44.7402 13H42.7402ZM33.7402 22C28.7675 22 24.7402 17.9727 24.7402 13H22.7402C22.7402 19.0773 27.663 24 33.7402 24V22ZM24.7402 13C24.7402 8.05066 28.7691 4 33.7402 4V2C27.6613 2 22.7402 6.94934 22.7402 13H24.7402ZM33.7402 22.325C38.8695 22.325 43.0402 18.1503 43.0402 13H41.0402C41.0402 17.0497 37.761 20.325 33.7402 20.325V22.325ZM43.0402 13C43.0402 7.87272 38.8675 3.7 33.7402 3.7V5.7C37.763 5.7 41.0402 8.97728 41.0402 13H43.0402ZM33.7402 3.7C28.5899 3.7 24.4152 7.87076 24.4152 13H26.4152C26.4152 8.97924 29.6906 5.7 33.7402 5.7V3.7ZM24.4152 13C24.4152 18.1523 28.5879 22.325 33.7402 22.325V20.325C29.6925 20.325 26.4152 17.0477 26.4152 13H24.4152ZM33.9902 13C33.9902 13.0716 33.9612 13.1422 33.9065 13.1977C33.851 13.254 33.7892 13.275 33.7402 13.275V15.275C34.9803 15.275 35.9902 14.2394 35.9902 13H33.9902ZM33.7402 13.275C33.5925 13.275 33.4652 13.1477 33.4652 13H31.4652C31.4652 14.2523 32.4879 15.275 33.7402 15.275V13.275ZM33.4652 13C33.4652 12.9511 33.4863 12.8893 33.5425 12.8338C33.598 12.779 33.6687 12.75 33.7402 12.75V10.75C32.5008 10.75 31.4652 11.7599 31.4652 13H33.4652ZM33.7402 12.75C33.7899 12.75 33.854 12.7718 33.9113 12.829C33.9685 12.8862 33.9902 12.9503 33.9902 13H35.9902C35.9902 11.7727 34.9675 10.75 33.7402 10.75V12.75ZM48.7402 23H47.7402V24H48.7402V23ZM48.7402 12.175V11.175H47.7402V12.175H48.7402ZM50.4152 12.175H51.4152V11.175H50.4152V12.175ZM50.4152 21.325H49.4152V22.325H50.4152V21.325ZM48.7402 4.7H47.7402V5.7H48.7402V4.7ZM48.7402 3V2H47.7402V3H48.7402ZM58.7402 4C63.688 4 67.7402 8.05228 67.7402 13H69.7402C69.7402 6.94772 64.7925 2 58.7402 2V4ZM67.7402 13C67.7402 17.9711 63.6896 22 58.7402 22V24C64.7909 24 69.7402 19.0789 69.7402 13H67.7402ZM58.7402 22H48.7402V24H58.7402V22ZM49.7402 23V12.175H47.7402V23H49.7402ZM48.7402 13.175H50.4152V11.175H48.7402V13.175ZM49.4152 12.175V21.325H51.4152V12.175H49.4152ZM50.4152 22.325H58.7402V20.325H50.4152V22.325ZM58.7402 22.325C63.8695 22.325 68.0402 18.1503 68.0402 13H66.0402C66.0402 17.0497 62.761 20.325 58.7402 20.325V22.325ZM68.0402 13C68.0402 7.87272 63.8675 3.7 58.7402 3.7V5.7C62.763 5.7 66.0402 8.97728 66.0402 13H68.0402ZM58.7402 3.7H48.7402V5.7H58.7402V3.7ZM49.7402 4.7V3H47.7402V4.7H49.7402ZM48.7402 4H58.7402V2H48.7402V4ZM83.7402 4C88.688 4 92.7402 8.05228 92.7402 13H94.7402C94.7402 6.94772 89.7925 2 83.7402 2V4ZM92.7402 13C92.7402 17.9711 88.6896 22 83.7402 22V24C89.7909 24 94.7402 19.0789 94.7402 13H92.7402ZM83.7402 22C78.7675 22 74.7402 17.9727 74.7402 13H72.7402C72.7402 19.0773 77.6629 24 83.7402 24V22ZM74.7402 13C74.7402 8.05066 78.7691 4 83.7402 4V2C77.6613 2 72.7402 6.94934 72.7402 13H74.7402ZM83.7402 22.325C88.8695 22.325 93.0402 18.1503 93.0402 13H91.0402C91.0402 17.0497 87.761 20.325 83.7402 20.325V22.325ZM93.0402 13C93.0402 7.87272 88.8675 3.7 83.7402 3.7V5.7C87.7629 5.7 91.0402 8.97728 91.0402 13H93.0402ZM83.7402 3.7C78.5899 3.7 74.4152 7.87076 74.4152 13H76.4152C76.4152 8.97924 79.6906 5.7 83.7402 5.7V3.7ZM74.4152 13C74.4152 18.1523 78.588 22.325 83.7402 22.325V20.325C79.6925 20.325 76.4152 17.0477 76.4152 13H74.4152ZM83.9902 13C83.9902 13.0716 83.9612 13.1422 83.9065 13.1977C83.851 13.254 83.7892 13.275 83.7402 13.275V15.275C84.9803 15.275 85.9902 14.2394 85.9902 13H83.9902ZM83.7402 13.275C83.5925 13.275 83.4652 13.1477 83.4652 13H81.4652C81.4652 14.2523 82.488 15.275 83.7402 15.275V13.275ZM83.4652 13C83.4652 12.9511 83.4863 12.8893 83.5425 12.8338C83.598 12.779 83.6687 12.75 83.7402 12.75V10.75C82.5008 10.75 81.4652 11.7599 81.4652 13H83.4652ZM83.7402 12.75C83.7899 12.75 83.854 12.7718 83.9113 12.829C83.9685 12.8862 83.9902 12.9503 83.9902 13H85.9902C85.9902 11.7727 84.9675 10.75 83.7402 10.75V12.75Z" fill="#4260FF" mask="url(#path-1-outside-1_77_6672)"/>
</svg>
