<svg width="326" height="55" viewBox="0 0 326 55" fill="none" xmlns="http://www.w3.org/2000/svg">
<rect width="326" height="55" rx="12" fill="#4260FF"/>
<path d="M145.64 20.572H147.352V31.068H145.64V27.468H142.792V28.764H136.184V21.5H137.896V23.804H141.096V21.5H142.792V23.036H145.64V20.572ZM137.896 27.388H141.096V25.132H137.896V27.388ZM138.072 34.508V30.044H139.784V33.116H147.672V34.508H138.072ZM142.792 26.076H145.64V24.412H142.792V26.076ZM156.232 25.916H159.608V24.332H156.392C155.496 26.604 153.416 28.188 150.328 29.068L149.656 27.708C153 26.796 154.76 25.084 155.016 22.94H150.424V21.564H156.888C156.888 22.06 156.856 22.524 156.776 22.972H159.608V20.556H161.336V28.892H159.608V27.292H156.232V25.916ZM151.896 31.884C151.896 30.124 153.768 29.052 156.664 29.052C159.544 29.052 161.416 30.124 161.416 31.884C161.416 33.628 159.544 34.716 156.664 34.716C153.768 34.716 151.896 33.628 151.896 31.884ZM153.608 31.884C153.608 32.828 154.76 33.372 156.664 33.372C158.568 33.372 159.72 32.828 159.72 31.884C159.72 30.924 158.568 30.396 156.664 30.396C154.76 30.396 153.608 30.924 153.608 31.884ZM172.857 20.556H174.585V26.236H176.745V27.66H174.585V34.78H172.857V20.556ZM163.433 24.108V22.732H166.777V20.764H168.521V22.732H171.785V24.108H163.433ZM164.105 28.412C164.105 26.46 165.625 25.084 167.657 25.084C169.705 25.084 171.193 26.46 171.193 28.412C171.193 30.38 169.705 31.756 167.657 31.756C165.625 31.756 164.105 30.38 164.105 28.412ZM165.753 28.412C165.753 29.596 166.537 30.348 167.657 30.348C168.745 30.348 169.545 29.596 169.545 28.412C169.545 27.244 168.745 26.492 167.657 26.492C166.537 26.492 165.753 27.244 165.753 28.412ZM187.529 20.556H189.257V34.78H187.529V20.556ZM177.577 30.908C181.289 29.116 183.001 26.684 183.289 23.42H178.297V22.044H185.049C185.049 26.3 183.417 29.884 178.489 32.268L177.577 30.908Z" fill="white"/>
</svg>
