<svg width="261" height="64" viewBox="0 0 261 64" fill="none" xmlns="http://www.w3.org/2000/svg">
<mask id="path-1-outside-1_291_8073" maskUnits="userSpaceOnUse" x="37.5" y="2" width="186" height="22" fill="black">
<rect fill="white" x="37.5" y="2" width="186" height="22"/>
<path d="M39 4.7V3H59V4.7H49.825V23H48.15V4.7H39ZM70.2402 3C75.7402 3 80.2402 7.5 80.2402 13C80.2402 18.525 75.7402 23 70.2402 23C64.7152 23 60.2402 18.525 60.2402 13C60.2402 7.5 64.7152 3 70.2402 3ZM70.2402 21.325C74.8152 21.325 78.5402 17.6 78.5402 13C78.5402 8.425 74.8152 4.7 70.2402 4.7C65.6402 4.7 61.9152 8.425 61.9152 13C61.9152 17.6 65.6402 21.325 70.2402 21.325ZM71.4902 13C71.4902 13.7 70.9152 14.275 70.2402 14.275C69.5402 14.275 68.9652 13.7 68.9652 13C68.9652 12.325 69.5402 11.75 70.2402 11.75C70.9152 11.75 71.4902 12.325 71.4902 13ZM95.2402 3C100.74 3 105.24 7.5 105.24 13C105.24 18.525 100.74 23 95.2402 23H85.2402V12.175H86.9152V21.325H95.2402C99.8152 21.325 103.54 17.6 103.54 13C103.54 8.425 99.8152 4.7 95.2402 4.7H85.2402V3H95.2402ZM120.24 3C125.74 3 130.24 7.5 130.24 13C130.24 18.525 125.74 23 120.24 23C114.715 23 110.24 18.525 110.24 13C110.24 7.5 114.715 3 120.24 3ZM120.24 21.325C124.815 21.325 128.54 17.6 128.54 13C128.54 8.425 124.815 4.7 120.24 4.7C115.64 4.7 111.915 8.425 111.915 13C111.915 17.6 115.64 21.325 120.24 21.325ZM121.49 13C121.49 13.7 120.915 14.275 120.24 14.275C119.54 14.275 118.965 13.7 118.965 13C118.965 12.325 119.54 11.75 120.24 11.75C120.915 11.75 121.49 12.325 121.49 13ZM159.825 21.325H163.725H165.25V23H159.825H145.25V21.725V21.325V3H146.925V21.325H159.825ZM170.225 23V3H171.9L171.925 23H170.225ZM182.315 3H196.915V4.7H182.315C180.265 4.7 178.59 6.375 178.59 8.425C178.59 10.5 180.265 12.175 182.315 12.175H191.49C194.465 12.175 196.915 14.6 196.915 17.6C196.915 20.575 194.465 23 191.49 23H176.915V21.325H191.49C193.54 21.325 195.215 19.65 195.215 17.6C195.215 15.525 193.54 13.85 191.49 13.85H182.315C179.34 13.85 176.915 11.425 176.915 8.425C176.915 5.45 179.34 3 182.315 3ZM201.915 4.7V3H221.915V4.7H212.74V23H211.065V4.7H201.915Z"/>
</mask>
<path d="M39 4.7V3H59V4.7H49.825V23H48.15V4.7H39ZM70.2402 3C75.7402 3 80.2402 7.5 80.2402 13C80.2402 18.525 75.7402 23 70.2402 23C64.7152 23 60.2402 18.525 60.2402 13C60.2402 7.5 64.7152 3 70.2402 3ZM70.2402 21.325C74.8152 21.325 78.5402 17.6 78.5402 13C78.5402 8.425 74.8152 4.7 70.2402 4.7C65.6402 4.7 61.9152 8.425 61.9152 13C61.9152 17.6 65.6402 21.325 70.2402 21.325ZM71.4902 13C71.4902 13.7 70.9152 14.275 70.2402 14.275C69.5402 14.275 68.9652 13.7 68.9652 13C68.9652 12.325 69.5402 11.75 70.2402 11.75C70.9152 11.75 71.4902 12.325 71.4902 13ZM95.2402 3C100.74 3 105.24 7.5 105.24 13C105.24 18.525 100.74 23 95.2402 23H85.2402V12.175H86.9152V21.325H95.2402C99.8152 21.325 103.54 17.6 103.54 13C103.54 8.425 99.8152 4.7 95.2402 4.7H85.2402V3H95.2402ZM120.24 3C125.74 3 130.24 7.5 130.24 13C130.24 18.525 125.74 23 120.24 23C114.715 23 110.24 18.525 110.24 13C110.24 7.5 114.715 3 120.24 3ZM120.24 21.325C124.815 21.325 128.54 17.6 128.54 13C128.54 8.425 124.815 4.7 120.24 4.7C115.64 4.7 111.915 8.425 111.915 13C111.915 17.6 115.64 21.325 120.24 21.325ZM121.49 13C121.49 13.7 120.915 14.275 120.24 14.275C119.54 14.275 118.965 13.7 118.965 13C118.965 12.325 119.54 11.75 120.24 11.75C120.915 11.75 121.49 12.325 121.49 13ZM159.825 21.325H163.725H165.25V23H159.825H145.25V21.725V21.325V3H146.925V21.325H159.825ZM170.225 23V3H171.9L171.925 23H170.225ZM182.315 3H196.915V4.7H182.315C180.265 4.7 178.59 6.375 178.59 8.425C178.59 10.5 180.265 12.175 182.315 12.175H191.49C194.465 12.175 196.915 14.6 196.915 17.6C196.915 20.575 194.465 23 191.49 23H176.915V21.325H191.49C193.54 21.325 195.215 19.65 195.215 17.6C195.215 15.525 193.54 13.85 191.49 13.85H182.315C179.34 13.85 176.915 11.425 176.915 8.425C176.915 5.45 179.34 3 182.315 3ZM201.915 4.7V3H221.915V4.7H212.74V23H211.065V4.7H201.915Z" fill="#4260FF"/>
<path d="M39 4.7H38V5.7H39V4.7ZM39 3V2H38V3H39ZM59 3H60V2H59V3ZM59 4.7V5.7H60V4.7H59ZM49.825 4.7V3.7H48.825V4.7H49.825ZM49.825 23V24H50.825V23H49.825ZM48.15 23H47.15V24H48.15V23ZM48.15 4.7H49.15V3.7H48.15V4.7ZM40 4.7V3H38V4.7H40ZM39 4H59V2H39V4ZM58 3V4.7H60V3H58ZM59 3.7H49.825V5.7H59V3.7ZM48.825 4.7V23H50.825V4.7H48.825ZM49.825 22H48.15V24H49.825V22ZM49.15 23V4.7H47.15V23H49.15ZM48.15 3.7H39V5.7H48.15V3.7ZM70.2402 4C75.188 4 79.2402 8.05228 79.2402 13H81.2402C81.2402 6.94772 76.2925 2 70.2402 2V4ZM79.2402 13C79.2402 17.9711 75.1896 22 70.2402 22V24C76.2909 24 81.2402 19.0789 81.2402 13H79.2402ZM70.2402 22C65.2675 22 61.2402 17.9727 61.2402 13H59.2402C59.2402 19.0773 64.163 24 70.2402 24V22ZM61.2402 13C61.2402 8.05066 65.2691 4 70.2402 4V2C64.1613 2 59.2402 6.94934 59.2402 13H61.2402ZM70.2402 22.325C75.3695 22.325 79.5402 18.1503 79.5402 13H77.5402C77.5402 17.0497 74.261 20.325 70.2402 20.325V22.325ZM79.5402 13C79.5402 7.87272 75.3675 3.7 70.2402 3.7V5.7C74.263 5.7 77.5402 8.97728 77.5402 13H79.5402ZM70.2402 3.7C65.0899 3.7 60.9152 7.87076 60.9152 13H62.9152C62.9152 8.97924 66.1906 5.7 70.2402 5.7V3.7ZM60.9152 13C60.9152 18.1523 65.0879 22.325 70.2402 22.325V20.325C66.1925 20.325 62.9152 17.0477 62.9152 13H60.9152ZM70.4902 13C70.4902 13.0716 70.4612 13.1422 70.4065 13.1977C70.351 13.254 70.2892 13.275 70.2402 13.275V15.275C71.4803 15.275 72.4902 14.2394 72.4902 13H70.4902ZM70.2402 13.275C70.0925 13.275 69.9652 13.1477 69.9652 13H67.9652C67.9652 14.2523 68.9879 15.275 70.2402 15.275V13.275ZM69.9652 13C69.9652 12.9511 69.9863 12.8893 70.0425 12.8338C70.098 12.779 70.1687 12.75 70.2402 12.75V10.75C69.0008 10.75 67.9652 11.7599 67.9652 13H69.9652ZM70.2402 12.75C70.2899 12.75 70.354 12.7718 70.4113 12.829C70.4685 12.8862 70.4902 12.9503 70.4902 13H72.4902C72.4902 11.7727 71.4675 10.75 70.2402 10.75V12.75ZM85.2402 23H84.2402V24H85.2402V23ZM85.2402 12.175V11.175H84.2402V12.175H85.2402ZM86.9152 12.175H87.9152V11.175H86.9152V12.175ZM86.9152 21.325H85.9152V22.325H86.9152V21.325ZM85.2402 4.7H84.2402V5.7H85.2402V4.7ZM85.2402 3V2H84.2402V3H85.2402ZM95.2402 4C100.188 4 104.24 8.05228 104.24 13H106.24C106.24 6.94772 101.293 2 95.2402 2V4ZM104.24 13C104.24 17.9711 100.19 22 95.2402 22V24C101.291 24 106.24 19.0789 106.24 13H104.24ZM95.2402 22H85.2402V24H95.2402V22ZM86.2402 23V12.175H84.2402V23H86.2402ZM85.2402 13.175H86.9152V11.175H85.2402V13.175ZM85.9152 12.175V21.325H87.9152V12.175H85.9152ZM86.9152 22.325H95.2402V20.325H86.9152V22.325ZM95.2402 22.325C100.369 22.325 104.54 18.1503 104.54 13H102.54C102.54 17.0497 99.261 20.325 95.2402 20.325V22.325ZM104.54 13C104.54 7.87272 100.368 3.7 95.2402 3.7V5.7C99.263 5.7 102.54 8.97728 102.54 13H104.54ZM95.2402 3.7H85.2402V5.7H95.2402V3.7ZM86.2402 4.7V3H84.2402V4.7H86.2402ZM85.2402 4H95.2402V2H85.2402V4ZM120.24 4C125.188 4 129.24 8.05228 129.24 13H131.24C131.24 6.94772 126.293 2 120.24 2V4ZM129.24 13C129.24 17.9711 125.19 22 120.24 22V24C126.291 24 131.24 19.0789 131.24 13H129.24ZM120.24 22C115.268 22 111.24 17.9727 111.24 13H109.24C109.24 19.0773 114.163 24 120.24 24V22ZM111.24 13C111.24 8.05066 115.269 4 120.24 4V2C114.161 2 109.24 6.94934 109.24 13H111.24ZM120.24 22.325C125.369 22.325 129.54 18.1503 129.54 13H127.54C127.54 17.0497 124.261 20.325 120.24 20.325V22.325ZM129.54 13C129.54 7.87272 125.368 3.7 120.24 3.7V5.7C124.263 5.7 127.54 8.97728 127.54 13H129.54ZM120.24 3.7C115.09 3.7 110.915 7.87076 110.915 13H112.915C112.915 8.97924 116.191 5.7 120.24 5.7V3.7ZM110.915 13C110.915 18.1523 115.088 22.325 120.24 22.325V20.325C116.193 20.325 112.915 17.0477 112.915 13H110.915ZM120.49 13C120.49 13.0716 120.461 13.1422 120.406 13.1977C120.351 13.254 120.289 13.275 120.24 13.275V15.275C121.48 15.275 122.49 14.2394 122.49 13H120.49ZM120.24 13.275C120.093 13.275 119.965 13.1477 119.965 13H117.965C117.965 14.2523 118.988 15.275 120.24 15.275V13.275ZM119.965 13C119.965 12.9511 119.986 12.8893 120.043 12.8338C120.098 12.779 120.169 12.75 120.24 12.75V10.75C119.001 10.75 117.965 11.7599 117.965 13H119.965ZM120.24 12.75C120.29 12.75 120.354 12.7718 120.411 12.829C120.468 12.8862 120.49 12.9503 120.49 13H122.49C122.49 11.7727 121.468 10.75 120.24 10.75V12.75ZM165.25 21.325H166.25V20.325H165.25V21.325ZM165.25 23V24H166.25V23H165.25ZM145.25 23H144.25V24H145.25V23ZM145.25 3V2H144.25V3H145.25ZM146.925 3H147.925V2H146.925V3ZM146.925 21.325H145.925V22.325H146.925V21.325ZM159.825 22.325H163.725V20.325H159.825V22.325ZM163.725 22.325H165.25V20.325H163.725V22.325ZM164.25 21.325V23H166.25V21.325H164.25ZM165.25 22H159.825V24H165.25V22ZM159.825 22H145.25V24H159.825V22ZM146.25 23V21.725H144.25V23H146.25ZM146.25 21.725V21.325H144.25V21.725H146.25ZM146.25 21.325V3H144.25V21.325H146.25ZM145.25 4H146.925V2H145.25V4ZM145.925 3V21.325H147.925V3H145.925ZM146.925 22.325H159.825V20.325H146.925V22.325ZM170.225 23H169.225V24H170.225V23ZM170.225 3V2H169.225V3H170.225ZM171.9 3L172.9 2.99875L172.899 2H171.9V3ZM171.925 23V24H172.926L172.925 22.9988L171.925 23ZM171.225 23V3H169.225V23H171.225ZM170.225 4H171.9V2H170.225V4ZM170.9 3.00125L170.925 23.0012L172.925 22.9988L172.9 2.99875L170.9 3.00125ZM171.925 22H170.225V24H171.925V22ZM196.915 3H197.915V2H196.915V3ZM196.915 4.7V5.7H197.915V4.7H196.915ZM176.915 23H175.915V24H176.915V23ZM176.915 21.325V20.325H175.915V21.325H176.915ZM182.315 4H196.915V2H182.315V4ZM195.915 3V4.7H197.915V3H195.915ZM196.915 3.7H182.315V5.7H196.915V3.7ZM182.315 3.7C179.713 3.7 177.59 5.82271 177.59 8.425H179.59C179.59 6.92728 180.817 5.7 182.315 5.7V3.7ZM177.59 8.425C177.59 11.0479 179.708 13.175 182.315 13.175V11.175C180.822 11.175 179.59 9.95208 179.59 8.425H177.59ZM182.315 13.175H191.49V11.175H182.315V13.175ZM191.49 13.175C193.916 13.175 195.915 15.1553 195.915 17.6H197.915C197.915 14.0447 195.014 11.175 191.49 11.175V13.175ZM195.915 17.6C195.915 20.0167 193.919 22 191.49 22V24C195.011 24 197.915 21.1333 197.915 17.6H195.915ZM191.49 22H176.915V24H191.49V22ZM177.915 23V21.325H175.915V23H177.915ZM176.915 22.325H191.49V20.325H176.915V22.325ZM191.49 22.325C194.092 22.325 196.215 20.2023 196.215 17.6H194.215C194.215 19.0977 192.988 20.325 191.49 20.325V22.325ZM196.215 17.6C196.215 14.9771 194.097 12.85 191.49 12.85V14.85C192.983 14.85 194.215 16.0729 194.215 17.6H196.215ZM191.49 12.85H182.315V14.85H191.49V12.85ZM182.315 12.85C179.895 12.85 177.915 10.8757 177.915 8.425H175.915C175.915 11.9743 178.785 14.85 182.315 14.85V12.85ZM177.915 8.425C177.915 5.99627 179.898 4 182.315 4V2C178.782 2 175.915 4.90373 175.915 8.425H177.915ZM201.915 4.7H200.915V5.7H201.915V4.7ZM201.915 3V2H200.915V3H201.915ZM221.915 3H222.915V2H221.915V3ZM221.915 4.7V5.7H222.915V4.7H221.915ZM212.74 4.7V3.7H211.74V4.7H212.74ZM212.74 23V24H213.74V23H212.74ZM211.065 23H210.065V24H211.065V23ZM211.065 4.7H212.065V3.7H211.065V4.7ZM202.915 4.7V3H200.915V4.7H202.915ZM201.915 4H221.915V2H201.915V4ZM220.915 3V4.7H222.915V3H220.915ZM221.915 3.7H212.74V5.7H221.915V3.7ZM211.74 4.7V23H213.74V4.7H211.74ZM212.74 22H211.065V24H212.74V22ZM212.065 23V4.7H210.065V23H212.065ZM211.065 3.7H201.915V5.7H211.065V3.7Z" fill="#4260FF" mask="url(#path-1-outside-1_291_8073)"/>
<path d="M11.286 45.474H12.942V51.756H15.39V53.124H12.942V61.368H11.286V45.474ZM1.278 57.372V47.04H2.916V56.022C5.112 56.004 7.434 55.824 9.918 55.32L10.116 56.67C7.416 57.228 4.968 57.372 2.574 57.372H1.278ZM17.0284 46.896H24.3904V54.33H17.0284V46.896ZM18.6484 52.998H22.7884V48.21H18.6484V52.998ZM18.8104 61.044V56.004H20.4484V59.694H29.4484V61.044H18.8104ZM27.1264 57.12V45.492H28.7824V50.262H31.0504V51.63H28.7824V57.12H27.1264ZM37.2608 46.626C39.7268 46.626 41.5268 48.192 41.5268 50.406C41.5268 52.638 39.7268 54.186 37.2608 54.186C34.7588 54.186 32.9588 52.638 32.9588 50.406C32.9588 48.192 34.7588 46.626 37.2608 46.626ZM32.2028 56.616C35.0648 56.616 39.0608 56.598 42.4808 56.076L42.6068 57.282C39.0788 57.966 35.2268 57.984 32.4008 57.984L32.2028 56.616ZM34.5608 50.406C34.5608 51.81 35.7128 52.764 37.2608 52.764C38.7728 52.764 39.9248 51.81 39.9248 50.406C39.9248 48.984 38.7728 48.048 37.2608 48.048C35.7128 48.048 34.5608 48.984 34.5608 50.406ZM43.4708 61.404V45.474H45.1268V61.404H43.4708ZM62.0017 46.932V48.336H57.9877V60.072H56.4037V48.336H52.4077V46.932H62.0017ZM66.3425 58.776C68.0345 58.776 69.2225 57.408 69.2225 55.428C69.2225 53.466 68.0345 52.098 66.3425 52.098C64.6505 52.098 63.4805 53.466 63.4805 55.428C63.4805 57.408 64.6505 58.776 66.3425 58.776ZM61.8965 55.428C61.8965 52.674 63.7325 50.73 66.3425 50.73C68.9705 50.73 70.8065 52.674 70.8065 55.428C70.8065 58.182 68.9705 60.126 66.3425 60.126C63.7325 60.126 61.8965 58.182 61.8965 55.428ZM76.7483 60.18C74.1383 60.18 72.3203 58.236 72.3203 55.464C72.3203 52.71 74.1383 50.748 76.7483 50.748C77.7383 50.748 79.0163 51.234 79.8083 52.566V46.932H81.3923V60.072H79.8083V58.38C78.9983 59.676 77.7383 60.18 76.7483 60.18ZM73.9043 55.482C73.9043 57.462 75.1103 58.848 76.8383 58.848C78.4403 58.848 79.8083 57.336 79.8083 55.482C79.8083 53.646 78.4403 52.116 76.8383 52.116C75.1103 52.116 73.9043 53.502 73.9043 55.482ZM87.6824 58.776C89.3744 58.776 90.5624 57.408 90.5624 55.428C90.5624 53.466 89.3744 52.098 87.6824 52.098C85.9904 52.098 84.8204 53.466 84.8204 55.428C84.8204 57.408 85.9904 58.776 87.6824 58.776ZM83.2364 55.428C83.2364 52.674 85.0724 50.73 87.6824 50.73C90.3104 50.73 92.1464 52.674 92.1464 55.428C92.1464 58.182 90.3104 60.126 87.6824 60.126C85.0724 60.126 83.2364 58.182 83.2364 55.428ZM98.323 46.932H99.907V60.072H98.323V46.932ZM102.389 50.802H103.973V60.072H102.389V50.802ZM102.227 47.688C102.227 47.148 102.623 46.77 103.181 46.77C103.721 46.77 104.117 47.148 104.117 47.688C104.117 48.246 103.721 48.642 103.181 48.642C102.623 48.642 102.227 48.246 102.227 47.688ZM107.275 57.624C107.869 58.488 108.787 58.83 109.507 58.83C110.623 58.83 111.415 58.254 111.415 57.39C111.415 55.59 106.429 56.346 106.465 53.232C106.465 51.702 107.815 50.622 109.705 50.64C110.731 50.658 111.955 51.108 112.639 52.116L111.523 53.034C111.037 52.278 110.281 52.008 109.687 52.008C108.715 51.99 108.049 52.494 108.049 53.232C108.031 55.032 113.017 54.276 112.999 57.39C112.981 59.046 111.541 60.216 109.489 60.198C108.337 60.18 106.969 59.64 106.141 58.542L107.275 57.624ZM118.325 60.108C116.813 60.108 115.733 58.992 115.679 57.408V52.206H114.131V50.82H115.679V48.354H117.263V50.82H119.621V52.206H117.263V57.3C117.263 58.002 117.713 58.632 118.325 58.632C118.721 58.632 118.919 58.578 119.243 58.506L119.549 59.964C119.207 60.036 118.847 60.108 118.325 60.108ZM121.428 58.11H127.782V55.266H123.192V50.244H132.444V47.958H123.156V46.626H134.082V51.54H124.812V53.934H134.442V55.266H129.42V58.11H135.81V59.46H121.428V58.11ZM151.947 45.51H153.585V51.954H156.105V53.322H153.585V61.386H151.947V45.51ZM141.219 49.326V47.994H145.107V45.708H146.781V47.994H150.579V49.326H141.219ZM142.065 54.222C142.065 52.062 143.721 50.55 145.953 50.55C148.221 50.55 149.859 52.062 149.859 54.222C149.859 56.382 148.221 57.894 145.953 57.894C143.721 57.894 142.065 56.382 142.065 54.222ZM143.631 54.222C143.631 55.608 144.603 56.544 145.953 56.544C147.303 56.544 148.293 55.608 148.293 54.222C148.293 52.854 147.303 51.9 145.953 51.9C144.603 51.9 143.631 52.854 143.631 54.222ZM158.751 46.122H169.695V50.406H160.443V52.242H170.073V53.574H158.769V49.146H168.039V47.436H158.751V46.122ZM157.041 56.454V55.122H171.423V56.454H165.015V61.404H163.395V56.454H157.041ZM183.411 45.51H185.049V51.954H187.569V53.322H185.049V61.386H183.411V45.51ZM172.683 49.326V47.994H176.571V45.708H178.245V47.994H182.043V49.326H172.683ZM173.529 54.222C173.529 52.062 175.185 50.55 177.417 50.55C179.685 50.55 181.323 52.062 181.323 54.222C181.323 56.382 179.685 57.894 177.417 57.894C175.185 57.894 173.529 56.382 173.529 54.222ZM175.095 54.222C175.095 55.608 176.067 56.544 177.417 56.544C178.767 56.544 179.757 55.608 179.757 54.222C179.757 52.854 178.767 51.9 177.417 51.9C176.067 51.9 175.095 52.854 175.095 54.222ZM190.216 46.122H201.16V50.406H191.908V52.242H201.538V53.574H190.234V49.146H199.504V47.436H190.216V46.122ZM188.506 56.454V55.122H202.888V56.454H196.48V61.404H194.86V56.454H188.506ZM219.097 45.51H220.753V48.84H223.039V50.19H220.753V53.538H219.097V45.51ZM208.657 49.596C208.657 47.508 210.403 46.05 212.761 46.05C215.155 46.05 216.901 47.508 216.901 49.596C216.901 51.684 215.155 53.124 212.761 53.124C210.403 53.124 208.657 51.684 208.657 49.596ZM210.241 49.596C210.241 50.892 211.303 51.81 212.761 51.81C214.255 51.81 215.317 50.892 215.317 49.596C215.317 48.282 214.255 47.364 212.761 47.364C211.303 47.364 210.241 48.282 210.241 49.596ZM210.601 55.554V54.258H220.753V58.272H212.257V59.856H221.293V61.17H210.619V57.048H219.133V55.554H210.601ZM224.389 48.228H227.881V45.798H229.519V48.228H232.957V49.524H229.519V50.586C229.519 53.088 230.995 55.662 233.317 56.796L232.417 58.056C230.707 57.21 229.393 55.536 228.727 53.574C228.043 55.698 226.657 57.462 224.857 58.344L223.939 57.084C226.333 55.95 227.899 53.25 227.899 50.586V49.524H224.389V48.228ZM234.721 61.386V45.51H236.377V51.954H238.915V53.322H236.377V61.386H234.721ZM251.804 45.492H253.37V61.368H251.804V45.492ZM239.798 56.814C243.164 54.798 244.766 52.098 245.036 48.822H240.518V47.49H246.674C246.674 49.038 246.458 50.514 245.972 51.9H248.492V45.888H250.04V60.576H248.492V53.214H245.396C244.46 55.05 242.966 56.67 240.752 57.984L239.798 56.814ZM258.878 46.716L258.626 56.706H257.15L256.862 46.716H258.878ZM256.88 59.298C256.88 58.722 257.312 58.308 257.906 58.308C258.482 58.308 258.896 58.722 258.896 59.298C258.896 59.91 258.482 60.324 257.906 60.324C257.312 60.324 256.88 59.91 256.88 59.298Z" fill="#232323"/>
</svg>
