<svg width="354" height="62" viewBox="0 0 354 62" fill="none" xmlns="http://www.w3.org/2000/svg">
<rect width="354" height="62" rx="12" fill="#F5F5F5"/>
<rect x="117" y="21" width="20" height="20" rx="10" fill="#A2A2A2"/>
<path d="M123.667 31H130.334" stroke="white" stroke-width="1.5" stroke-linecap="round" stroke-linejoin="round"/>
<path d="M127 34.3334V27.6667" stroke="white" stroke-width="1.5" stroke-linecap="round" stroke-linejoin="round"/>
<path d="M156.472 25.384V26.632H152.904V37.064H151.496V26.632H147.944V25.384H156.472ZM160.331 35.912C161.835 35.912 162.891 34.696 162.891 32.936C162.891 31.192 161.835 29.976 160.331 29.976C158.827 29.976 157.787 31.192 157.787 32.936C157.787 34.696 158.827 35.912 160.331 35.912ZM156.379 32.936C156.379 30.488 158.011 28.76 160.331 28.76C162.667 28.76 164.299 30.488 164.299 32.936C164.299 35.384 162.667 37.112 160.331 37.112C158.011 37.112 156.379 35.384 156.379 32.936ZM169.58 37.16C167.26 37.16 165.644 35.432 165.644 32.968C165.644 30.52 167.26 28.776 169.58 28.776C170.46 28.776 171.596 29.208 172.3 30.392V25.384H173.708V37.064H172.3V35.56C171.58 36.712 170.46 37.16 169.58 37.16ZM167.052 32.984C167.052 34.744 168.124 35.976 169.66 35.976C171.084 35.976 172.3 34.632 172.3 32.984C172.3 31.352 171.084 29.992 169.66 29.992C168.124 29.992 167.052 31.224 167.052 32.984ZM179.299 35.912C180.803 35.912 181.859 34.696 181.859 32.936C181.859 31.192 180.803 29.976 179.299 29.976C177.795 29.976 176.755 31.192 176.755 32.936C176.755 34.696 177.795 35.912 179.299 35.912ZM175.347 32.936C175.347 30.488 176.979 28.76 179.299 28.76C181.635 28.76 183.267 30.488 183.267 32.936C183.267 35.384 181.635 37.112 179.299 37.112C176.979 37.112 175.347 35.384 175.347 32.936ZM184.758 25.384H186.166V37.064H184.758V25.384ZM188.372 28.824H189.78V37.064H188.372V28.824ZM188.228 26.056C188.228 25.576 188.58 25.24 189.076 25.24C189.556 25.24 189.908 25.576 189.908 26.056C189.908 26.552 189.556 26.904 189.076 26.904C188.58 26.904 188.228 26.552 188.228 26.056ZM192.715 34.888C193.243 35.656 194.059 35.96 194.699 35.96C195.691 35.96 196.395 35.448 196.395 34.68C196.395 33.08 191.963 33.752 191.995 30.984C191.995 29.624 193.195 28.664 194.875 28.68C195.787 28.696 196.875 29.096 197.483 29.992L196.491 30.808C196.059 30.136 195.387 29.896 194.859 29.896C193.995 29.88 193.403 30.328 193.403 30.984C193.387 32.584 197.819 31.912 197.803 34.68C197.787 36.152 196.507 37.192 194.683 37.176C193.659 37.16 192.443 36.68 191.707 35.704L192.715 34.888ZM202.537 37.096C201.193 37.096 200.233 36.104 200.185 34.696V30.072H198.809V28.84H200.185V26.648H201.593V28.84H203.689V30.072H201.593V34.6C201.593 35.224 201.993 35.784 202.537 35.784C202.889 35.784 203.065 35.736 203.353 35.672L203.625 36.968C203.321 37.032 203.001 37.096 202.537 37.096ZM208.983 32.616H221.751V33.832H216.087V38.248H214.631V33.832H208.983V32.616ZM209.751 30.472C212.391 30.12 214.567 28.616 214.631 27H210.199V25.832H214.631V24.12H216.087V25.832H220.535V27H216.087C216.151 28.6 218.311 30.12 220.951 30.472L220.439 31.64C218.183 31.336 216.263 30.248 215.367 28.792C214.455 30.264 212.535 31.32 210.279 31.64L209.751 30.472ZM232.391 24.088H233.879V29.752H236.055V30.968H233.879V38.216H232.391V24.088ZM222.999 34.472C226.519 32.68 228.439 30.104 228.727 26.792H223.687V25.608H230.199C230.199 29.672 228.407 33.288 223.815 35.592L222.999 34.472Z" fill="#A2A2A2"/>
</svg>
